<svg id="Calque_1" data-name="Calque 1" xmlns="http://www.w3.org/2000/svg" viewBox="0 0 1080 1080"><defs><style>.cls-1{fill:#f97316;}.cls-2{fill:#1256cc;}.cls-3{fill:none;}</style></defs><rect class="cls-1" x="249.67" y="144.02" width="50.54" height="773.56"/><polygon class="cls-1" points="215.05 144.02 215.05 917.58 236.59 917.58 237.81 144.02 215.05 144.02"/><rect class="cls-1" x="190.89" y="144.02" width="13.29" height="773.56"/><path class="cls-2" d="M715.89,506.46H315.17V919H557.45c188.7,0,311.19-85,311.19-217.39C868.64,604.74,808.22,527.63,715.89,506.46Zm-191.54,225H401.86V613.35H524.35c47.45,0,78.35,22.07,78.35,56.28C602.7,707.15,571.8,731.42,524.35,731.42Z"/><path class="cls-3" d="M524.35,334H401.86V444.39H524.35c35.31,0,58.48-22.07,58.48-56.28C582.83,355,559.66,334,524.35,334Z"/><path class="cls-2" d="M775.84,431.63c-2.91-4.76-5.35-9.81-8.36-14.48-12.17-18.86-37-19.49-50-1.17-3.69,5.19-6.6,10.92-9.82,16.44-5.16,8.86-12.29,10.89-21.14,5.8Q662.67,424.5,639,410.47c-9.25-5.47-11-13-5.5-22.24,3-5.14,6.21-10.24,9-15.53,7.67-14.52,2.85-31.09-15.66-41.73-4.75-.35-14.09-1.38-23.45-1.66-15.65-.47-20-4.55-20-19.86,0-15.53.19-31.06.3-46.59.1-15.7,4.39-20.12,19.62-20.21,43-.27,53.66-18.63,32.57-56-7.14-12.64-5.52-19.27,7-26.57,2-1.14,4-2.26,5.92-3.41-33.32-6.72-70.19-10.27-110.11-10.27H315.17v361H715.89l-.63-.15c48.27-14.75,86-44.58,108.09-82.8q-12.24,7-24.6,13.79C788.5,443.89,782.08,441.81,775.84,431.63ZM524.35,444.39H401.86V334H524.35c35.31,0,58.48,21,58.48,54.07C582.83,422.32,559.66,444.39,524.35,444.39Z"/><path class="cls-1" d="M835.29,399.28c8.11-4.76,10.33-11.52,5.48-20-2.76-4.83-5.76-9.56-8.15-14.57a147.3,147.3,0,0,1-17.24,46.16Q825.37,405.12,835.29,399.28Z"/><path class="cls-1" d="M857.44,248.13c-21.92-.88-33.63-21.06-23.45-40.52,2-3.81,4.35-7.45,6.47-11.2,6.3-11.12,5-16-6.32-22.66-8-4.77-16.13-9.44-24.2-14.15C782.8,143.76,782.8,143.76,766,169.65c-8.3,12.78-24.28,17-36.35,7.73-6.73-5.19-11.1-13.63-16-21-6.3-9.45-11.93-11.41-21.56-6.07q-17.07,9.48-34,19.27c110.16,22.22,177.09,83,177.16,166.57a26.7,26.7,0,0,1,19-9.83c5.34-.43,10.76,0,16.14-.11,11.56-.22,15.65-4.05,16-15.44.31-10.76.31-21.52.31-32.29C886.68,249.31,886.66,249.31,857.44,248.13Z"/><path class="cls-1" d="M658.14,169.61l-5.34,3.07c-11.28,6.58-12.74,12.54-6.31,23.93,19,33.63,9.38,50.17-29.34,50.41-13.71.08-17.58,4.07-17.67,18.2s-.23,28-.27,42c-.05,13.78,3.9,17.46,18,17.88,8.44.26,16.85,1.18,21.13,1.5,16.67,9.58,21,24.51,14.11,37.59-2.52,4.76-5.36,9.36-8.11,14-4.94,8.33-3.38,15.1,4.95,20q21.35,12.63,42.85,25c8,4.58,14.39,2.76,19-5.23,2.9-5,5.52-10.13,8.84-14.81,11.71-16.5,34.07-15.93,45,1.06,2.72,4.21,4.92,8.76,7.54,13,5.62,9.18,11.4,11.05,20.63,6q11.14-6.11,22.17-12.42a147.3,147.3,0,0,0,17.24-46.16c-.08-.15-.15-.31-.23-.46-4.7-10-3-20.6,2.91-28C835.23,252.65,768.3,191.83,658.14,169.61Zm130.17,143.3c-14.44,25-47.31,33.82-72,19.3-24.46-14.38-32.93-46.57-18.73-71.22,14.7-25.52,46.43-34.42,71.58-20.08S802.83,287.73,788.31,312.91Z"/></svg>